{"title":"Pathfinder UNRATED 2007 [Plaz]","uid":13801438,"size":2223693104,"categoryP":"video","categoryS":"movies","magnet":"?xt=urn:btih:6ccccbc0ccf85274f68948129fc5c396e80ee9f3&amp;dn=Pathfinder+UNRATED+2007+%5BPlaz%5D&amp;tr=udp%3A%2F%2Ftracker.leechers-paradise.org%3A6969&amp;tr=udp%3A%2F%2Fzer0day.ch%3A1337&amp;tr=udp%3A%2F%2Fopen.demonii.com%3A1337&amp;tr=udp%3A%2F%2Ftracker.coppersurfer.tk%3A6969&amp;tr=udp%3A%2F%2Fexodus.desync.com%3A6969","seeders":0,"leechers":0,"uploader":"Dark_Ti","files":5,"time":1457457615,"description":"A Viking boy is left behind after his clan battles a Native American tribe. Raised within the tribe, he ultimately becomes their savior in a fight against the Norsemen. \r\n\r\nGeneral\r\nComplete name               : Pathfinder UNRATED 2007.mkv\r\nFormat                      : Matroska\r\nFormat version              : Version 2\r\nFile size                   : 2.06 GiB\r\nDuration                    : 1h 47mn\r\nOverall bit rate            : 2 757 Kbps\r\nEncoded date                : UTC 2016-03-05T02:38:56Z\r\nWriting application         : HandBrake 0.10.5 2016021100\r\nWriting library             : Lavf55.12.0 / Lavf55.12.0\r\n\r\nVideo\r\nID                          : 1\r\nFormat                      : AVC\r\nFormat/Info                 : Advanced Video Codec\r\nFormat profile              :   \r\nFormat settings, CABAC      : Yes\r\nFormat settings, ReFrames   : 4 frames\r\nCodec ID                    : V_MPEG4/ISO/AVC\r\nBit rate                    : 1 800 Kbps\r\nWidth                       : 720 pixels\r\nHeight                      : 362 pixels\r\nDisplay aspect ratio        : 2.35:1\r\nOriginal display aspect rat : 2.35:1\r\nFrame rate mode             : Variable\r\nColor space                 : YUV\r\nChroma subsampling          : 4:2:0\r\nBit depth                   : 8 bits\r\nScan type                   : Progressive\r\nWriting library             : x264 core 142 r2479 dd79a61\r\nEncoding settings           : cabac=1 / ref=3 / deblock=1:0:0 / analyse=0x3:0x113 / me=hex / subme=7 / psy=1 / psy_rd=1.00:0.00 / mixed_ref=1 / me_range=16 / chroma_me=1 / trellis=1 / 8x8dct=1 / cqm=0 / deadzone=21,11 / fast_pskip=1 / chroma_qp_offset=-2 / threads=3 / lookahead_threads=1 / sliced_threads=0 / nr=0 / decimate=1 / interlaced=0 / bluray_compat=0 / constrained_intra=0 / bframes=3 / b_pyramid=2 / b_adapt=1 / b_bias=0 / direct=1 / weightb=1 / open_gop=0 / weightp=2 / keyint=240 / keyint_min=24 / scenecut=40 / intra_refresh=0 / rc_lookahead=40 / rc=2pass / mbtree=1 / bitrate=1800 / ratetol=1.0 / qcomp=0.60 / qpmin=0 / qpmax=69 / qpstep=4 / cplxblur=20.0 / qblur=0.5 / vbv_maxrate=62500 / vbv_bufsize=78125 / nal_hrd=none / filler=0 / ip_ratio=1.40 / aq=1:1.00\r\nDefault                     : Yes\r\nForced                      : No\r\nColor range                 : Limited\r\nColor primaries             : BT.601 NTSC\r\nTransfer characteristics    : BT.709\r\nMatrix coefficients         : BT.601\r\n\r\nAudio #1\r\nID                          : 2\r\nFormat                      : DTS\r\nFormat/Info                 : Digital Theater Systems\r\nMode                        : 16\r\nFormat settings, Endianness : Big\r\nCodec ID                    : A_DTS\r\nDuration                    : 1h 47mn\r\nBit rate mode               : Constant\r\nBit rate                    : 755 Kbps\r\nChannel(s)                  : 6 channels\r\nChannel positions           : Front: L C R, Side: L R, LFE\r\nSampling rate               : 48.0 KHz\r\nFrame rate                  : 93.750 fps (512 spf)\r\nBit depth                   : 24 bits\r\nCompression mode            : Lossy\r\nStream size                 : 579 MiB (27%)\r\nTitle                       : Surround\r\nLanguage                    : English\r\nDefault                     : Yes\r\nForced                      : No\r\n\r\nAudio #2\r\nID                          : 3\r\nFormat                      : AC-3\r\nFormat/Info                 : Audio Coding 3\r\nMode extension              : CM (complete main)\r\nFormat settings, Endianness : Big\r\nCodec ID                    : A_AC3\r\nDuration                    : 1h 47mn\r\nBit rate mode               : Constant\r\nBit rate                    : 192 Kbps\r\nChannel(s)                  : 2 channels\r\nChannel positions           : Front: L R\r\nSampling rate               : 48.0 KHz\r\nFrame rate                  : 31.250 fps (1536 spf)\r\nCompression mode            : Lossy\r\nStream size                 : 147 MiB (7%)\r\nTitle                       : Stereo\r\nLanguage                    : English\r\nDefault                     : No\r\nForced                      : No\r\n\r\nText\r\nID                          : 4\r\nFormat                      : VobSub\r\nCodec ID                    : S_VOBSUB\r\nCodec ID/Info               : Picture based subtitle format used on DVDs\r\nLanguage                    : English\r\nDefault                     : Yes\r\nForced                      : No","torrent":{"xt":"urn:btih:6ccccbc0ccf85274f68948129fc5c396e80ee9f3","amp;dn":"Pathfinder+UNRATED+2007+%5BPlaz%5D","amp;tr":["udp%3A%2F%2Ftracker.leechers-paradise.org%3A6969","udp%3A%2F%2Fzer0day.ch%3A1337","udp%3A%2F%2Fopen.demonii.com%3A1337","udp%3A%2F%2Ftracker.coppersurfer.tk%3A6969","udp%3A%2F%2Fexodus.desync.com%3A6969"],"infoHash":"6ccccbc0ccf85274f68948129fc5c396e80ee9f3","infoHashBuffer":{"type":"Buffer","data":[108,204,203,192,204,248,82,116,246,137,72,18,159,197,195,150,232,14,233,243]},"announce":[],"urlList":[]}}